<svg width="30" height="30" viewBox="0 0 30 30" fill="none" xmlns="http://www.w3.org/2000/svg">
<path d="M14.9937 4.99999C9.79519 4.99288 5.45824 8.96997 5.01617 14.1496C4.57411 19.3293 8.17437 23.9838 13.2989 24.8577C18.4233 25.7316 23.3628 22.5334 24.6624 17.5H22.0612C20.7896 21.0964 17.0212 23.1655 13.3042 22.3081C9.5873 21.4506 7.10604 17.9398 7.53843 14.1499C7.97081 10.3599 11.1791 7.49819 14.9937 7.49999C16.9806 7.50291 18.8829 8.30473 20.2724 9.725L18.5 11.5L24 12V6L22.0612 7.9375C20.1908 6.05578 17.6468 4.99839 14.9937 4.99999Z" fill="#46464D"/>
<path d="M13 17H19V15H15V11H13V17Z" fill="#46464D"/>
</svg>
