<svg width="30" height="30" viewBox="0 0 30 30" fill="none" xmlns="http://www.w3.org/2000/svg">
<path d="M15 27.5C8.09644 27.5 2.5 21.9036 2.5 15C2.5 8.09644 8.09644 2.5 15 2.5C21.9036 2.5 27.5 8.09644 27.5 15C27.4924 21.9004 21.9004 27.4924 15 27.5ZM15 5C9.47715 5 5 9.47715 5 15C5 20.5228 9.47715 25 15 25C20.5228 25 25 20.5228 25 15C24.9938 9.47972 20.5203 5.0062 15 5ZM12.5 22.5C12.4825 22.5 12.325 22.4937 11.25 22.4937H10V22.4637C10 22.45 10 22.4325 10 22.4112C10 22.37 10 22.3138 10.0087 22.245C10.0225 22.0588 10.0437 21.8813 10.0738 21.705C10.1674 21.1359 10.3443 20.5838 10.5988 20.0662C10.9462 19.3517 11.4767 18.7418 12.1363 18.2987L12.1538 18.2875L12.1737 18.2725L12.1925 18.2625H12.2H12.2087H12.215H12.2238L12.2375 18.2537C13.0685 17.7463 14.0264 17.4849 15 17.5C16.012 17.4731 17.0089 17.7495 17.8625 18.2938C18.5215 18.7375 19.0518 19.3472 19.4 20.0612C19.6555 20.5783 19.832 21.1307 19.9237 21.7C19.9638 21.935 19.9813 22.1238 19.9888 22.24C19.9888 22.295 19.9963 22.35 19.9975 22.4062C19.9975 22.4275 19.9975 22.445 19.9975 22.4587V22.4838C19.9975 22.4838 19.9475 22.4838 18.7475 22.4838C17.615 22.4838 17.4975 22.4838 17.4975 22.4838C17.4975 22.4838 17.4975 22.4475 17.4975 22.41C17.4975 22.3413 17.4812 22.235 17.4587 22.1025C17.4063 21.7786 17.307 21.464 17.1637 21.1688C17.0089 20.8442 16.7714 20.5661 16.475 20.3625C16.0295 20.0996 15.5166 19.9735 15 20C14.4822 19.9773 13.9691 20.1077 13.525 20.375C13.229 20.579 12.9915 20.857 12.8363 21.1812C12.6933 21.4766 12.5939 21.7911 12.5413 22.115C12.5235 22.2168 12.511 22.3194 12.5037 22.4225C12.5037 22.4575 12.5037 22.4825 12.5037 22.495H12.5V22.5ZM10.625 15C9.58947 15 8.75 14.1605 8.75 13.125C8.75 12.0895 9.58947 11.25 10.625 11.25C11.6605 11.25 12.5 12.0895 12.5 13.125C12.5 14.1605 11.6605 15 10.625 15ZM19.3662 14.9825C18.3355 14.9825 17.5 14.147 17.5 13.1163C17.5 12.0855 18.3355 11.25 19.3662 11.25C20.397 11.25 21.2325 12.0855 21.2325 13.1163C21.2311 14.1464 20.3964 14.9811 19.3662 14.9825Z" fill="white"/>
</svg>
